<svg width="41" height="32" viewBox="0 0 41 32" fill="none" xmlns="http://www.w3.org/2000/svg">
<path d="M34.4579 26.1257C33.0961 23.1636 33.02 18.8459 34.4579 16.8588C38.105 11.5682 34.7664 7.15173 33.4993 5.71387C29.8543 1.51548 22.0355 1.91866 19.24 3.91603C17.2632 5.4732 15.0252 8.00951 15.885 12.9443C16.3293 14.9088 16.354 14.9047 15.4057 15.9003C14.1386 17.6714 14.0214 18.3111 14.1818 18.7492C14.659 19.1627 15.5497 19.0228 16.4857 18.9364C16.1092 19.5371 15.7801 20.1254 15.5333 20.6931C15.4839 20.8042 15.5394 20.9358 15.6526 20.977C15.8953 21.0613 16.1648 21.0675 16.4116 21.0325C16.5988 21.0078 16.7202 21.2197 16.6009 21.3658C16.426 21.5756 16.2779 21.806 16.2553 22.0364C16.2471 22.1166 16.2882 22.1947 16.3602 22.2338L16.8888 22.5321C16.6975 23.8568 16.895 25.1877 17.7939 25.4675C19.131 25.7164 21.4246 25.6279 23.605 24.8504C24.8022 24.4246 25.9624 23.7889 26.9127 22.89" stroke="#002260" stroke-width="1.23077" stroke-linecap="round" stroke-linejoin="round"/>
<path d="M24.9111 27.2449C24.7856 25.9387 24.2693 25.2537 23.5 24.9678" stroke="#002260" stroke-width="1.23077" stroke-linecap="round" stroke-linejoin="round"/>
<path d="M38.9703 24.3429L34.4592 28.854L32.4087 26.8035" stroke="#01AD08" stroke-width="1.23421" stroke-linecap="round" stroke-linejoin="round"/>
<path d="M1.23096 12.2491C1.23096 12.3931 1.23096 16.1489 1.23096 18.0088" stroke="#002260" stroke-width="1.23077" stroke-linecap="round"/>
<g clip-path="url(#clip0_980_5501)">
<path d="M8.86185 15.3214L8.33114 15.8541L8.62118 16.1442L9.64969 15.1157L8.62118 14.0872L8.33114 14.3772L8.86185 14.91H5.53564V15.3214H8.86185Z" fill="#01AD08"/>
</g>
<defs>
<clipPath id="clip0_980_5501">
<rect width="4.93686" height="4.93686" fill="white" transform="translate(5.12451 12.6472)"/>
</clipPath>
</defs>
</svg>
