<svg width="41" height="32" viewBox="0 0 41 32" fill="none" xmlns="http://www.w3.org/2000/svg">
<path d="M15.1911 7.04772L15.4529 6.49081L15.1547 6.35061L14.8727 6.52109L15.1911 7.04772ZM21.7823 8.5336L21.9951 9.11102L22.3977 8.96266V8.5336H21.7823ZM21.1387 6.72488L21.365 6.15259L19.6865 5.48908L20.61 7.03976L21.1387 6.72488ZM26.8732 10.2099V10.8252C27.1621 10.8252 27.4121 10.6243 27.4742 10.3421L26.8732 10.2099ZM23.3096 3.01022L22.8968 3.46663C23.0036 3.56317 23.1408 3.61924 23.2846 3.62509L23.3096 3.01022ZM11.9172 10.3444L11.9274 10.9597C12.1063 10.9567 12.2751 10.876 12.3897 10.7386C12.5044 10.6012 12.5535 10.4206 12.5244 10.2441L11.9172 10.3444ZM11.3874 13.5065L11.9988 13.4368C11.9908 13.3659 11.9704 13.297 11.9387 13.233L11.3874 13.5065ZM12.9685 15.8905L13.5694 15.7579C13.5318 15.5876 13.4238 15.4413 13.2721 15.3552C13.1204 15.2692 12.9393 15.2516 12.7739 15.3067L12.9685 15.8905ZM16.2962 21.5463L15.9536 22.0575L15.9539 22.0578L16.2962 21.5463ZM19.1955 22.4859L19.1649 23.1005C19.1707 23.1008 19.1765 23.101 19.1822 23.1011L19.1955 22.4859ZM25.9875 15.6484L26.2093 15.0744C26.0479 15.012 25.8678 15.0204 25.7129 15.0976C25.5581 15.1748 25.4429 15.3136 25.3955 15.4801L25.9875 15.6484ZM27.7548 13.1837L27.2415 12.8442C27.1889 12.9238 27.1555 13.0144 27.1439 13.1091L27.7548 13.1837ZM26.8711 10.2099L26.6626 9.63087C26.3813 9.73219 26.2135 10.0211 26.2649 10.3157C26.3163 10.6103 26.5721 10.8252 26.8711 10.8252V10.2099ZM11.9814 23.5103L11.9839 24.1256C11.9902 24.1256 11.9965 24.1255 12.0028 24.1253L11.9814 23.5103ZM14.9293 7.60463C15.9222 8.07143 17.0481 8.70879 18.1729 9.08309C19.3404 9.4716 20.61 9.62147 21.9951 9.11102L21.5696 7.95617C20.5231 8.34181 19.5535 8.2454 18.5615 7.91529C17.5268 7.57096 16.5729 7.01734 15.4529 6.49081L14.9293 7.60463ZM22.3977 8.5336C22.3977 7.81617 22.0673 7.08137 21.6675 6.41L20.61 7.03976C20.9842 7.66801 21.167 8.16249 21.167 8.5336H22.3977ZM20.9125 7.29717C23.21 8.20542 24.4151 9.25805 24.5437 10.5172L25.7681 10.3921C25.5604 8.35835 23.676 7.06615 21.365 6.15259L20.9125 7.29717ZM14.2493 10.4959C14.2041 9.74202 14.2898 9.15708 14.49 8.69713C14.6856 8.24769 15.0075 7.87779 15.5095 7.57435L14.8727 6.52109C14.1728 6.94422 13.6679 7.50198 13.3615 8.20597C13.0597 8.89946 12.9682 9.69372 13.0208 10.5695L14.2493 10.4959ZM27.4742 10.3421C28.0454 7.74588 28.054 5.78972 27.3381 4.44379C26.584 3.02593 25.1402 2.46875 23.3346 2.39534L23.2846 3.62509C24.8894 3.69034 25.7935 4.16063 26.2515 5.02176C26.7478 5.95482 26.8329 7.52915 26.2722 10.0776L27.4742 10.3421ZM23.7224 2.5538C20.9746 0.0687901 17.526 0.146991 14.952 1.80475C12.3874 3.45653 10.6866 6.6705 11.31 10.4447L12.5244 10.2441C11.9827 6.96554 13.4565 4.23189 15.6185 2.83949C17.7711 1.45308 20.6013 1.39055 22.8968 3.46663L23.7224 2.5538ZM11.907 9.72907C11.5402 9.73515 11.1617 9.7976 10.8373 9.98369C10.49 10.183 10.2501 10.4989 10.1498 10.9071C10.0557 11.2902 10.0917 11.7211 10.2072 12.1772C10.3241 12.6389 10.5341 13.171 10.8361 13.78L11.9387 13.233C11.6592 12.6696 11.4884 12.2229 11.4003 11.8751C11.3108 11.5217 11.3176 11.3125 11.3451 11.2008C11.3663 11.1142 11.3989 11.0804 11.4498 11.0512C11.5237 11.0088 11.6692 10.9639 11.9274 10.9597L11.907 9.72907ZM10.776 13.5762C10.8827 14.5125 11.0755 15.3007 11.4193 15.8289C11.5984 16.1039 11.8412 16.3435 12.1665 16.4699C12.4984 16.5989 12.842 16.5814 13.1631 16.4743L12.7739 15.3067C12.6666 15.3425 12.6246 15.3275 12.6123 15.3228C12.5935 15.3154 12.5338 15.2849 12.4508 15.1574C12.2706 14.8806 12.1011 14.334 11.9988 13.4368L10.776 13.5762ZM12.3676 16.0231C12.9053 18.4601 14.0216 20.7627 15.9536 22.0575L16.6388 21.0351C15.0816 19.9915 14.0747 18.0476 13.5694 15.7579L12.3676 16.0231ZM15.9539 22.0578C16.8598 22.664 17.9298 23.0391 19.1649 23.1005L19.2261 21.8713C18.2138 21.8209 17.3592 21.5172 16.6384 21.0349L15.9539 22.0578ZM19.1822 23.1011C21.3271 23.1474 24.9613 21.5068 26.5794 15.8167L25.3955 15.4801C23.9053 20.7208 20.7062 21.903 19.2088 21.8706L19.1822 23.1011ZM25.7656 16.2224C26.0008 16.3133 26.2939 16.401 26.6058 16.3822C26.949 16.3614 27.2629 16.2151 27.5175 15.9349C27.753 15.6757 27.92 15.3222 28.0485 14.9016C28.1789 14.475 28.2831 13.9337 28.3656 13.2583L27.1439 13.1091C27.066 13.7467 26.9729 14.2102 26.8715 14.5419C26.7682 14.8798 26.669 15.0386 26.6065 15.1073C26.5631 15.1551 26.5472 15.1527 26.5314 15.1536C26.4843 15.1565 26.3891 15.1439 26.2093 15.0744L25.7656 16.2224ZM28.2681 13.5231C28.8959 12.5737 29.0733 11.5171 28.8132 10.7051C28.6818 10.2948 28.4253 9.91664 28.0235 9.69728C27.6115 9.47238 27.133 9.46148 26.6626 9.63087L27.0796 10.7888C27.2787 10.7171 27.3827 10.7497 27.4337 10.7775C27.4948 10.8109 27.5816 10.8947 27.6411 11.0805C27.7628 11.4605 27.7125 12.1319 27.2415 12.8442L28.2681 13.5231ZM26.8711 10.8252H26.8732V9.59447H26.8711V10.8252ZM15.7881 21.2321C15.4381 21.9535 15.157 22.2819 14.7114 22.4908C14.2075 22.727 13.4248 22.8443 11.96 22.8953L12.0028 24.1253C13.4518 24.0748 14.4737 23.9614 15.2337 23.6052C16.0521 23.2217 16.4942 22.5961 16.8954 21.7695L15.7881 21.2321ZM11.9789 22.8949C10.6158 22.9003 9.51748 23.1487 8.63828 23.6025C7.75374 24.059 7.12362 24.7068 6.6771 25.4569C5.80394 26.9235 5.63799 28.7829 5.53964 30.3442L6.76798 30.4216C6.8683 28.829 7.03449 27.2625 7.73464 26.0865C8.07478 25.5151 8.5416 25.0374 9.20276 24.6962C9.86925 24.3522 10.7653 24.1305 11.9839 24.1256L11.9789 22.8949ZM21.773 21.7695C22.149 22.5443 22.5637 23.1496 23.3015 23.5389C23.9988 23.907 24.9129 24.0409 26.1717 24.1045L26.2337 22.8753C24.9823 22.8121 24.3122 22.6807 23.8759 22.4505C23.4801 22.2416 23.2119 21.9157 22.8802 21.2321L21.773 21.7695Z" fill="#002260"/>
<path opacity="0.8" d="M23.5996 10.9259C24.3219 10.8928 25.8057 10.7996 26.4638 11.3687C27.1219 11.9378 26.7038 14.3964 25.8802 15.1558C25.0545 15.9153 23.1464 15.905 22.1179 15.3814C21.0894 14.8578 20.6631 12.8236 20.9031 12.0827C21.1432 11.3418 21.4681 11.0252 23.5996 10.9259V10.9259Z" fill="#46425B" fill-opacity="0.8"/>
<path opacity="0.8" d="M15.2305 10.9259C14.5083 10.8928 13.0245 10.7996 12.3664 11.3687C11.7083 11.9378 12.1264 14.3964 12.95 15.1558C13.7757 15.9153 15.6838 15.905 16.7123 15.3814C17.7408 14.8578 18.1671 12.8236 17.927 12.0827C17.687 11.3418 17.3621 11.0252 15.2305 10.9259V10.9259Z" fill="#46425B" fill-opacity="0.8"/>
<path d="M27.6618 10.5927C26.7865 10.3733 24.3921 10.1478 23.5126 10.1892C21.5673 10.2823 20.8595 10.5285 20.5036 11.0356C20.3546 11.1018 19.9862 11.2301 19.3881 11.2301C18.7259 11.2301 18.3389 11.0687 18.2292 11.0149C17.8547 10.5617 17.1221 10.3361 15.2823 10.2492C14.4049 10.2078 12.0105 10.4333 11.1331 10.6527C10.862 10.721 10.8992 11.4929 11.0689 11.5715C11.369 11.7081 11.3938 12.4262 11.4807 13.0781C11.6028 13.9949 12.0954 15.1352 12.5072 15.5242C13.5109 16.47 15.8328 16.4596 17.0828 15.8057C18.0782 15.2862 18.608 13.5769 18.6369 12.4345C18.7859 12.3062 19.0239 12.1779 19.384 12.1779C19.7689 12.1779 20.009 12.3103 20.1518 12.4428C20.1994 13.5851 20.7292 15.2386 21.7039 15.7477C22.9538 16.4017 25.2758 16.412 26.2794 15.4663C26.6913 15.0772 27.1838 13.9369 27.3059 13.0202C27.3928 12.3683 27.4176 11.6502 27.7177 11.5136C27.8895 11.437 27.9267 10.6631 27.6536 10.5948L27.6618 10.5927ZM16.7123 15.3793C15.6838 15.9029 13.7737 15.9133 12.9501 15.1538C12.1244 14.3943 11.7084 11.9358 12.3665 11.3667C13.0246 10.7976 14.5084 10.8907 15.2306 10.9238C17.3621 11.0231 17.6871 11.3398 17.9271 12.0806C18.1672 12.8215 17.7409 14.8558 16.7123 15.3793V15.3793ZM25.878 15.1538C25.0523 15.9133 23.1442 15.9029 22.1157 15.3793C21.0872 14.8558 20.6609 12.8215 20.9009 12.0806C21.141 11.3398 21.4659 11.0231 23.5974 10.9238C24.3197 10.8907 25.8035 10.7976 26.4616 11.3667C27.1196 11.9358 26.7016 14.3943 25.878 15.1538V15.1538Z" fill="#002260"/>
<g style="mix-blend-mode:overlay" opacity="0.2">
<path d="M13.9041 14.1626C13.9041 12.8692 14.7174 11.7661 15.8618 11.3378C15.6756 11.3212 15.4645 11.3067 15.2306 11.2964C14.6036 11.2674 13.3143 11.1867 12.7431 11.6813C12.172 12.1759 12.5341 14.3116 13.2501 14.9717C13.4798 15.1828 13.8048 15.3256 14.1711 15.4063C13.9993 15.0276 13.902 14.6075 13.902 14.1626H13.9041Z" fill="#002260"/>
</g>
<g style="mix-blend-mode:overlay" opacity="0.2">
<path d="M22.774 14.1937C22.774 12.8257 23.6763 11.6668 24.9201 11.2819C24.4979 11.2612 24.0881 11.2819 23.8067 11.2964C21.9359 11.3833 21.6503 11.6606 21.4392 12.3125C21.2282 12.9623 21.6027 14.7483 22.505 15.2077C22.6582 15.2863 22.8341 15.3505 23.0245 15.4022C22.8651 15.0318 22.774 14.6241 22.774 14.1937V14.1937Z" fill="#002260"/>
</g>
<path d="M33.653 23.1565L27.0308 29.7788M27.0308 23.1565L33.653 29.7788" stroke="#D90202" stroke-width="1.24167" stroke-linecap="round" stroke-linejoin="round"/>
</svg>
